<?xml version="1.0" encoding="UTF-8"?>
<svg id="Layer_1" data-name="Layer 1" xmlns="http://www.w3.org/2000/svg" viewBox="0 0 993 640">
  <defs>
    <style>
      .cls-1 {
        fill: #666;
        stroke-width: 0px;
      }
    </style>
  </defs>
  <rect class="cls-1" x="287" y="61" width="376" height="11" rx="4" ry="4"/>
  <polygon class="cls-1" points="504 425.0741 504 395.3846 445 369.403 445 399.0924 504 425.0741"/>
  <polygon class="cls-1" points="445 333.403 445 359.5695 504 385.5511 504 359.3846 445 333.403"/>
  <polygon class="cls-1" points="445 297.403 445 323.5695 504 349.5511 504 323.3846 445 297.403"/>
  <rect class="cls-1" x="445" y="17" width="59" height="162" rx="26" ry="26"/>
  <path class="cls-1" d="M55.9624,430.3682c-18.5-18.75-24.75-42.9995-24.75-71.2495s6-53.25,25-71.75c14.5-14,34.25-20.5,55.75-20.5,39.5,0,71.5,27.5,73,66.25h-41c-.75-17.25-12.5-29.75-32.75-29.75-11,0-19.25,3.5-25,9.25-11,11-13.75,26-13.75,46.5s2.5,35.4995,13.5,46.4995c6,6,14.75,9.5,26.5,9.5,22.25,0,30.75-15.25,31.5-30.2495h40.75c-3.5,40.4995-32.5,66.2495-72.75,66.2495-21.25,0-41.75-6.25-56-20.75Z"/>
  <path class="cls-1" d="M226.4624,429.6182c-18.75-18.25-25-42.2495-25-70.4995s6.25-52.5,25-70.75c14.5-14.25,35.5-21.5,56.5-21.5s42,7.25,56.5,21.5c18.75,18.25,25,42.5,25,70.75s-6.25,52.2495-25,70.4995c-14.5,14.25-35.5,21.5-56.5,21.5s-42-7.25-56.5-21.5ZM309.2124,405.1182c10.75-10.75,14-25.4995,14-45.9995s-3.25-35.5-14-46.25c-6-6-15-9.5-26.25-9.5s-20.25,3.5-26.25,9.5c-10.75,10.75-14,25.75-14,46.25s3.25,35.2495,14,45.9995c6,6,15,9.5,26.25,9.5s20.25-3.5,26.25-9.5Z"/>
  <path class="cls-1" d="M629.4629,270.3687h50.25l62.25,177.2495h-43.25l-11.5-35.75h-67l-11.5,35.75h-41.25l62-177.2495ZM676.4629,377.8687l-22.75-71.25-22.75,71.25h45.5Z"/>
  <path class="cls-1" d="M950.9619,270.3687v177.2495h-39.75v-124.9995l-42.25,122.4995h-31.75l-42-122.9995v125.4995h-38.25v-177.2495h55.75l42,120.75,42.25-120.75h54Z"/>
  <g>
    <rect class="cls-1" x="913.7119" y="440.431" width="34.75" height="4.6872"/>
    <polygon class="cls-1" points="700.5352 445.1182 738.4355 445.1182 736.7894 440.431 699.0274 440.431 700.5352 445.1182"/>
    <rect class="cls-1" x="759.4619" y="440.431" width="33.25" height="4.6872"/>
    <polygon class="cls-1" points="867.1797 442.6182 867.934 440.431 838.2532 440.431 839 442.6182 867.1797 442.6182"/>
    <path class="cls-1" d="M147.3552,440.431h-73.1097c10.767,5.3433,23.6336,8.1872,37.717,8.1872,13.3042,0,25.2605-2.8788,35.3928-8.1872Z"/>
    <path class="cls-1" d="M953.4619,440.431v9.6872h-44.75v-9.6872h-35.4889l-2.4789,7.1872h-35.3203l-2.4542-7.1872h-35.2578v9.6872h-43.25v-9.6872h-12.3738l3.4022,9.6872h-48.5996l-3.1161-9.6872h-80.1232l-3.1161,9.6872h-46.5957l3.3885-9.6872h-63.3279v-5.5234l-59-25.9817v31.5051h-115.1628c-13.1967,8.4766-29.6183,13.1872-46.8748,13.1872s-33.6738-4.7094-46.8734-13.1872h-79.1245c-12.4513,8.6434-27.8258,13.1872-45.0021,13.1872-18.3676,0-34.8351-4.628-47.665-13.1872H23.4617v162c0,8.2843,6.7157,15,15,15h914c8.2843,0,15-6.7157,15-15v-162h-13.9998Z"/>
    <path class="cls-1" d="M319.6473,440.431h-73.3698c10.9005,5.3005,23.524,8.1872,36.6849,8.1872s25.7844-2.8867,36.6849-8.1872Z"/>
    <polygon class="cls-1" points="608.3984 440.431 572.6259 440.431 570.9863 445.1182 606.8906 445.1182 608.3984 440.431"/>
  </g>
  <g>
    <path class="cls-1" d="M242.6581,279.431h80.6063c-11.6795-6.499-25.6614-10.0623-40.3021-10.0623s-28.6266,3.5643-40.3043,10.0623Z"/>
    <path class="cls-1" d="M70.9852,279.431h79.0448c-10.901-6.4073-23.9196-10.0623-38.0676-10.0623-15.5304,0-29.4207,3.4528-40.9772,10.0623Z"/>
    <polygon class="cls-1" points="631.2373 272.8687 628.9419 279.431 680.2461 279.431 677.9414 272.8687 631.2373 272.8687"/>
    <polygon class="cls-1" points="759.4619 272.8687 759.4619 279.431 813.2171 279.431 810.9346 272.8687 759.4619 272.8687"/>
    <path class="cls-1" d="M23.4617,117.431v162h38.3492c13.5049-9.8737,30.6347-15.0623,50.1516-15.0623,18.0251,0,34.3361,5.567,47.1549,15.0623h74.1745c13.6329-9.6606,31.176-15.0623,49.6706-15.0623s36.0325,5.4,49.6693,15.0623h112.3683v8.1385l59,25.9817v-34.1202h119.6441l4.0444-11.5623h53.7959l4.0607,11.5623h68.9169v-11.5623h60.0273l4.0217,11.5623h72.6319l4.0457-11.5623h58.2734v11.5623h13.9998V117.431c0-8.2843-6.7157-15-15-15H38.4617c-8.2843,0-15,6.7157-15,15Z"/>
    <polygon class="cls-1" points="896.4393 279.431 948.4619 279.431 948.4619 272.8687 898.7354 272.8687 896.4393 279.431"/>
  </g>
</svg>