<svg width="745" height="90" xmlns="http://www.w3.org/2000/svg" xmlns:xlink="http://www.w3.org/1999/xlink" xml:space="preserve" overflow="hidden"><g transform="translate(-2229 -3944)"><path d="M89.653 62.4679 157.674 62.4679 157.674 71.838 89.653 71.838Z" fill="#626262" transform="matrix(1.00064 0 0 1 2229 3944)"/><path d="M24.7558 27.7635 27.9949 27.7635 27.9949 80.3985 24.7558 80.3985Z" fill="#878787" transform="matrix(1.00064 0 0 1 2229 3944)"/><path d="M33.7789 54.1388 22.4422 54.1388C19.8866 54.1388 17.8149 52.0671 17.8149 49.5116L17.8149 46.8509C17.8149 44.2954 19.8866 42.2236 22.4422 42.2236L33.7789 42.2236 33.7789 54.1388Z" fill="#626262" transform="matrix(1.00064 0 0 1 2229 3944)"/><path d="M39.91 56.3368 173.869 56.3368C174.636 56.3368 175.257 55.7152 175.257 54.9486L175.257 43.0334C175.257 42.2668 174.636 41.6452 173.869 41.6452L39.91 41.6452 39.91 56.3368Z" fill="#626262" transform="matrix(1.00064 0 0 1 2229 3944)"/><path d="M193.882 70.2185C194.648 70.2185 195.27 70.84 195.27 71.6067L195.27 79.0103C195.27 79.777 194.648 80.3985 193.882 80.3985L45.347 80.3985C44.5804 80.3985 43.9589 79.777 43.9589 79.0103L43.9589 71.6067C43.9589 70.84 44.5804 70.2185 45.347 70.2185Z" fill="#878787" transform="matrix(1.00064 0 0 1 2229 3944)"/><path d="M121.928 25.7969 121.928 8.56041C121.928 7.79375 121.307 7.17224 120.54 7.17224L82.2494 7.17224 82.2494 63.0463C82.2494 63.8129 82.8709 64.4344 83.6375 64.4344L160.334 64.4344C161.101 64.4344 161.722 63.8129 161.722 63.0463L161.722 28.5733C161.722 27.8066 161.101 27.1851 160.334 27.1851L123.316 27.1851C122.549 27.1851 121.928 26.5635 121.928 25.7969Z" fill="#878787" transform="matrix(1.00064 0 0 1 2229 3944)"/><path d="M32.3907 7.17224 55.4113 7.17224 55.4113 64.4344 32.3907 64.4344Z" fill="#878787" transform="matrix(1.00064 0 0 1 2229 3944)"/><path d="M82.2494 27.1851 82.2494 7.17224 74.8458 7.17224 74.8458 27.7635 82.2494 27.7635 82.2494 27.1851Z" fill="#83B941" transform="matrix(1.00064 0 0 1 2229 3944)"/><path d="M62.8149 27.1851 62.8149 7.17224 55.4113 7.17224 55.4113 27.7635 62.8149 27.7635 62.8149 27.1851Z" fill="#83B941" transform="matrix(1.00064 0 0 1 2229 3944)"/><path d="M22.7892 27.6478 29.9614 27.6478 29.9614 30.0771 22.7892 30.0771Z" fill="#878787" transform="matrix(1.00064 0 0 1 2229 3944)"/><path d="M22.7892 77.9691 29.9614 77.9691 29.9614 80.3985 22.7892 80.3985Z" fill="#878787" transform="matrix(1.00064 0 0 1 2229 3944)"/><path d="M222.242 72.3194C214.464 64.9204 213.325 53.9167 213.325 44.241 213.325 34.5653 214.464 23.5616 222.242 16.2575 226.606 12.1785 232.487 9.33273 239.981 9.33273 247.476 9.33273 253.356 12.2734 257.626 16.2575 265.499 23.5616 266.637 34.5653 266.637 44.241 266.637 53.9167 265.499 65.0153 257.626 72.3194 253.356 76.3036 247.476 79.2441 239.981 79.2441 232.487 79.2441 226.511 76.3983 222.242 72.3194ZM254.021 69.0942C260.756 62.6438 261.42 52.2091 261.42 44.241 261.42 36.2728 260.756 25.9332 254.021 19.4827 250.416 16.0677 245.389 14.1706 239.981 14.1706 234.574 14.1706 229.546 15.9729 225.942 19.4827 219.207 26.028 218.448 36.2728 218.448 44.241 218.448 52.2091 219.112 62.5488 225.942 69.0942 229.546 72.5091 234.574 74.4063 239.981 74.4063 245.389 74.4063 250.416 72.5091 254.021 69.0942Z" fill="#878787" transform="matrix(1.00064 0 0 1 2229 3944)"/><path d="M306.191 10.6607C318.618 10.6607 328.294 16.6369 328.294 29.8224 328.294 43.0079 318.618 48.9839 306.191 48.9839L287.504 48.9839 287.504 77.9162 282.571 77.9162 282.571 10.6607 306.191 10.6607ZM323.172 29.8224C323.172 19.3878 315.678 15.4038 305.906 15.4038L287.504 15.4038 287.504 44.241 305.906 44.241C315.678 44.241 323.172 40.257 323.172 29.8224Z" fill="#878787" transform="matrix(1.00064 0 0 1 2229 3944)"/><path d="M333.32 15.4038 333.32 10.6607 383.881 10.6607 383.881 15.4038 361.019 15.4038 361.019 77.9162 356.086 77.9162 356.086 15.4038 333.32 15.4038Z" fill="#878787" transform="matrix(1.00064 0 0 1 2229 3944)"/><path d="M400.289 10.6607 400.289 77.9162 395.262 77.9162 395.262 10.6607 400.289 10.6607Z" fill="#878787" transform="matrix(1.00064 0 0 1 2229 3944)"/><path d="M424.098 71.8451C416.889 64.5409 416.225 53.8218 416.225 44.241 416.225 34.6602 416.889 24.0359 424.098 16.7318 428.746 12.0837 435.386 9.33273 441.836 9.33273 454.737 9.33273 464.604 18.3444 465.742 31.2453L460.618 31.2453C459.766 21.285 452.461 14.1706 441.836 14.1706 435.86 14.1706 431.307 16.3524 427.702 20.0518 421.631 26.3126 421.347 36.1779 421.347 44.241 421.347 52.3041 421.726 62.2643 427.797 68.5251 431.497 72.3194 436.24 74.4063 441.836 74.4063 452.461 74.4063 459.766 67.2919 460.618 57.3316L465.742 57.3316C464.698 70.5171 454.453 79.2441 441.836 79.2441 435.386 79.2441 428.746 76.4932 424.098 71.8451Z" fill="#878787" transform="matrix(1.00064 0 0 1 2229 3944)"/><path d="M485.28 10.6607 485.28 73.268 520.188 73.268 520.188 77.9162 480.348 77.9162 480.348 10.6607 485.28 10.6607Z" fill="#878787" transform="matrix(1.00064 0 0 1 2229 3944)"/><path d="M569.419 56.7625 537.546 56.7625 529.483 77.9162 524.266 77.9162 550.352 10.6607 556.328 10.6607 582.699 77.9162 577.577 77.9162 569.419 56.7625ZM567.617 52.2091 553.293 15.214 539.254 52.2091 567.617 52.2091Z" fill="#878787" transform="matrix(1.00064 0 0 1 2229 3944)"/><path d="M656.593 10.6607 656.593 77.9162 651.755 77.9162 651.755 15.0242 627.187 76.9675 622.823 76.9675 598.255 15.4986 598.255 77.9162 593.417 77.9162 593.417 10.6607 601.195 10.6607 625.195 70.8017 648.719 10.6607 656.593 10.6607Z" fill="#878787" transform="matrix(1.00064 0 0 1 2229 3944)"/><path d="M700.132 10.6607C712.558 10.6607 722.234 16.6369 722.234 29.8224 722.234 43.0079 712.558 48.9839 700.132 48.9839L681.445 48.9839 681.445 77.9162 676.512 77.9162 676.512 10.6607 700.132 10.6607ZM717.111 29.8224C717.111 19.3878 709.618 15.4038 699.847 15.4038L681.445 15.4038 681.445 44.241 699.847 44.241C709.618 44.241 717.111 40.257 717.111 29.8224Z" fill="#878787" transform="matrix(1.00064 0 0 1 2229 3944)"/></g></svg>
